PathFileType	4	(X/Y/Z)	C:\Users\Basilio\Documents\Thesis Gigler\squatting_fais\c3dfiles\040\SJ_pre1\markers_experimental.trc
DataRate	CameraRate	NumFrames	NumMarkers	Units	OrigDataRate	OrigDataStartFrame	OrigNumFrames
200.000000	200.000000	4	62	mm	200.000000	880	1174
Frame#	Time	FHD			LBHD			RBHD			C7			T10			CLAV			LSHO			LUUPA			LMUPA			LDUPA			LLEP			LMEP			LRAD			LUL			LRFIN			RSHO			RUPA1			RMUPA			RDUPA			RLEP			RMEP			RRAD			RUL			RUFIN			LASI			RASI			USACR			LSACR			RSACR			LTHI1			LTHI2			LTHI3			LTHI4			LLFC			LMFC			LTIB1			LTIB2			LTIB3			LTIB4			LLMAL			LMMAL			LHEE			LMT1			LMT2			LMT5			RTHI			RTHI2			RTHI3			RTHI4			RLFC			RMFC			RTIB1			RTIB2			RTIB3			RTIB4			RLMAL			RMMAL			RHEE			RMT1			RMT2			RMT5			*61			
		X1	Y1	Z1	X2	Y2	Z2	X3	Y3	Z3	X4	Y4	Z4	X5	Y5	Z5	X6	Y6	Z6	X7	Y7	Z7	X8	Y8	Z8	X9	Y9	Z9	X10	Y10	Z10	X11	Y11	Z11	X12	Y12	Z12	X13	Y13	Z13	X14	Y14	Z14	X15	Y15	Z15	X16	Y16	Z16	X17	Y17	Z17	X18	Y18	Z18	X19	Y19	Z19	X20	Y20	Z20	X21	Y21	Z21	X22	Y22	Z22	X23	Y23	Z23	X24	Y24	Z24	X25	Y25	Z25	X26	Y26	Z26	X27	Y27	Z27	X28	Y28	Z28	X29	Y29	Z29	X30	Y30	Z30	X31	Y31	Z31	X32	Y32	Z32	X33	Y33	Z33	X34	Y34	Z34	X35	Y35	Z35	X36	Y36	Z36	X37	Y37	Z37	X38	Y38	Z38	X39	Y39	Z39	X40	Y40	Z40	X41	Y41	Z41	X42	Y42	Z42	X43	Y43	Z43	X44	Y44	Z44	X45	Y45	Z45	X46	Y46	Z46	X47	Y47	Z47	X48	Y48	Z48	X49	Y49	Z49	X50	Y50	Z50	X51	Y51	Z51	X52	Y52	Z52	X53	Y53	Z53	X54	Y54	Z54	X55	Y55	Z55	X56	Y56	Z56	X57	Y57	Z57	X58	Y58	Z58	X59	Y59	Z59	X60	Y60	Z60	X61	Y61	Z61	X62	Y62	Z62	

881	4.4	-110.9048690795899	1378.760864257813	-952.065612792969	-223.7704315185547	1307.084594726563	-997.7568359375002	-274.5117797851563	1260.527465820313	-867.0034790039065	-268.9512329101563	1182.118408203125	-922.287048339844	-427.1177368164064	915.8304443359377	-916.941589355469	-163.2513122558594	1070.587768554688	-907.0894165039065	-159.6956481933594	1117.434936523438	-1083.509887695313	-246.0140838623047	1022.804382324219	-1246.328491210938	-257.4913940429688	975.5838012695315	-1239.326538085938	-284.7628173828126	985.5115966796877	-1291.804565429688	-329.4713745117188	955.2669677734377	-1334.872680664063	-390.6030578613282	994.4208984375002	-1312.268310546875	-486.1639709472657	792.201354980469	-1141.845947265625	-448.2488708496095	739.2549438476564	-1176.737670898438	-438.816375732422	789.948425292969	-1091.369140625	-193.055404663086	1121.395263671875	-738.7230224609376	-324.9702758789063	1096.0947265625	-591.1572265625001	-329.8401184082032	1047.613647460938	-577.4911499023439	-370.3054809570313	1074.411376953125	-541.4938354492189	-414.0734863281251	1032.37841796875	-498.3610839843751	-480.6134338378907	1048.8251953125	-552.1043090820314	-438.3767700195314	822.8164062500002	-693.8573608398439	-425.0874938964845	773.955749511719	-636.5598754882814	-381.1504516601563	800.6235961914065	-736.8142089843751	-363.3136901855469	703.2685546875001	-1006.533020019531	-377.8224182128907	702.5042724609376	-789.7729492187502	-519.9052124023439	808.8743286132815	-909.4113769531252	-540.5567016601564	786.1981201171877	-939.0064086914065	-544.8608398437501	785.7324829101565	-883.1547851562502	-360.7204895019532	542.9401855468751	-1138.468139648438	-279.5251159667969	540.0242919921876	-1165.378051757813	-255.6891021728516	579.7744750976564	-1162.482421875	-244.9920043945313	491.2002868652345	-1169.092041015625	-141.2786407470703	442.0309448242189	-1189.973510742188	-128.1354064941407	403.3201293945314	-1074.414184570313	-195.3253479003907	237.8155212402344	-1169.769775390625	-281.8425903320313	250.9410400390626	-1198.386474609375	-249.0034637451172	220.4065093994141	-1188.61181640625	-282.1762390136719	147.8049468994141	-1161.155517578125	-387.2203063964845	102.9931945800782	-1165.91162109375	-334.7446289062501	97.60834503173831	-1092.204711914063	-446.7882690429689	45.31498336791993	-1113.840698242188	-227.9174194335938	54.30444335937501	-1160.016235351563	-243.7920684814454	54.04167556762697	-1204.915283203125	-303.5018920898438	33.03916549682618	-1238.286376953125	-353.9642333984376	574.2703857421876	-653.0355224609376	-290.7167053222657	569.8096923828126	-631.4412841796876	-268.4865722656251	594.2938232421876	-636.9144897460939	-249.7565155029297	497.3447570800782	-614.6306152343751	-170.5460510253907	438.2098083496095	-585.6976318359376	-138.5388336181641	410.0342102050782	-707.5682373046876	-206.3785400390626	261.7889709472657	-593.6967163085939	-315.4126892089844	244.5221710205079	-592.1448364257814	-278.2459716796876	215.2552490234376	-592.2733764648439	-284.6636352539063	163.4945678710938	-619.1358032226564	-393.8222656250001	102.2370910644532	-612.6872558593751	-351.2186889648438	94.76156616210939	-691.8359375000001	-453.810760498047	50.01162719726564	-673.1555175781251	-237.9727478027344	55.17549896240236	-612.1538085937501	-252.4275970458985	59.03427886962892	-575.3425292968751	-308.3788452148438	37.27688598632813	-536.3120727539064	nan	nan	nan	
882	4.405	-112.9390258789063	1387.851684570313	-952.720642089844	-226.507064819336	1315.963989257813	-998.3493652343752	-277.5259399414063	1269.736694335938	-867.5325317382815	-271.6318054199219	1190.385375976563	-923.0472412109377	-427.6503906250001	923.022155761719	-917.3569946289065	-165.0251007080078	1080.071899414063	-907.8176269531252	-162.0439758300782	1126.249389648438	-1084.206298828125	-247.7305908203126	1031.188598632813	-1246.866333007813	-259.1437988281251	983.737731933594	-1239.654907226563	-286.2498168945313	993.2670898437502	-1292.149780273438	-330.4092407226563	962.6114501953127	-1335.437622070313	-391.7232666015626	1000.973266601563	-1312.624389648438	-486.2619628906251	798.1805419921877	-1142.29638671875	-447.9093017578126	745.5048217773439	-1177.223388671875	-438.8585205078126	796.277526855469	-1091.926879882813	-195.1350097656251	1130.294921875	-739.3878784179689	-327.3270874023438	1103.842163085938	-591.7182006835939	-331.5413818359376	1054.99072265625	-578.0272827148439	-372.1985778808594	1081.7587890625	-542.1450805664064	-415.9936523437501	1039.4091796875	-499.389617919922	-482.5638732910157	1055.513305664063	-552.5671386718751	-438.6434631347657	829.4416503906252	-694.1799926757814	-425.024871826172	780.7318115234377	-636.7484130859376	-381.1016845703126	807.3867797851565	-736.9522094726564	-362.5022888183594	709.9543457031251	-1007.139038085938	-377.7393188476563	709.2870483398439	-790.0174560546877	-519.1796264648439	814.8516235351565	-909.777770996094	-540.5532836914064	792.6287231445315	-939.3356933593752	-544.6406250000001	792.1299438476565	-883.456970214844	-361.5217285156251	547.5580444335939	-1138.444458007813	-280.4547729492188	543.4288330078126	-1165.635131835938	-256.0558166503907	582.8292236328126	-1162.9609375	-246.5684509277344	494.1375732421876	-1169.139282226563	-143.32080078125	443.8165893554689	-1190.06396484375	-129.8564758300782	405.5553588867189	-1074.863159179688	-196.3377380371094	239.9364624023438	-1170.826782226563	-282.9439697265626	251.3605346679688	-1198.645751953125	-250.1079254150391	221.1797027587891	-1188.817138671875	-282.6962585449219	148.5072631835938	-1161.583618164063	-387.4297485351564	102.8428649902344	-1166.08349609375	-335.0113220214844	97.801139831543	-1092.389404296875	-446.8949279785157	45.20780563354493	-1113.958618164063	-228.0900878906251	54.26990509033205	-1159.958618164063	-243.8267974853516	54.12879180908205	-1204.865600585938	-303.5075683593751	32.99259948730469	-1238.27099609375	-354.1091613769532	578.5211791992189	-653.2413940429689	-290.8975219726563	573.1542968750001	-631.6317138671876	-268.5350952148438	597.4202880859376	-636.9290771484376	-250.9068145751954	499.7879333496095	-615.5606689453126	-172.0445709228516	439.5256958007814	-586.5347290039064	-140.2765808105469	411.5727844238282	-708.2042846679689	-207.6798248291016	262.1632995605469	-594.4417114257814	-316.1394653320313	245.066879272461	-592.0955810546876	-278.7327270507813	215.9472961425782	-592.5234375000001	-285.2493286132813	164.0580139160157	-619.3597412109376	-393.9783325195314	102.2354812622071	-612.4691162109376	-351.6395263671876	94.89746856689455	-691.7691650390626	-454.0538330078126	49.98232269287111	-673.0000610351564	-238.0364837646485	55.44400024414064	-612.2344970703126	-252.5250244140626	58.92964935302736	-575.3685302734376	-308.3619384765626	37.35490417480469	-536.3864135742189	nan	nan	nan	
883	4.41	-114.1824722290039	1396.43310546875	-953.4051513671877	-229.1196899414063	1324.851440429688	-998.3704223632815	-280.1317749023438	1278.582153320313	-868.1260375976565	-274.0455932617188	1198.473999023438	-923.6677856445315	-428.4002685546876	930.0517578125002	-917.8579711914065	-167.0064239501953	1088.638916015625	-908.4783935546877	-163.9296569824219	1135.522338867188	-1084.881225585938	-249.3400268554688	1039.157958984375	-1247.566040039063	-259.8216552734376	991.646667480469	-1240.345581054688	-287.5792236328126	1001.024597167969	-1292.695922851563	-331.6342773437501	969.977966308594	-1336.350952148438	-393.245574951172	1008.088134765625	-1312.9638671875	-486.4118041992189	804.4084472656252	-1142.806640625	-447.7705078125001	752.0593872070314	-1177.831176757813	-438.8506164550782	802.6257934570315	-1092.464965820313	-197.7434539794922	1139.276489257813	-740.1307983398439	-329.6901245117188	1111.861572265625	-592.1087036132814	-333.5020446777344	1063.138549804688	-578.5120849609376	-374.4744262695313	1089.319580078125	-542.4653930664064	-417.2525024414064	1046.542724609375	-499.9779663085939	-484.3314514160157	1062.0087890625	-553.1710815429689	-438.698455810547	836.297058105469	-694.4743652343751	-425.1268310546876	787.7286376953127	-636.9494018554689	-381.0692443847657	814.2430419921877	-737.0444335937501	-362.2590637207032	716.5916137695314	-1007.190673828125	-376.8986816406251	716.2943725585939	-790.5921630859377	-519.1252441406251	821.4387817382815	-910.1871337890627	-540.1490478515626	799.0703125000002	-939.5918579101565	-544.2000732421876	798.7449340820315	-883.5982055664065	-362.3563232421876	551.8013305664064	-1138.500610351563	-281.3063964843751	546.8675537109376	-1165.7861328125	-256.7361145019532	586.2478637695314	-1163.413818359375	-247.8827209472657	496.6140136718751	-1169.159790039063	-145.1902923583985	445.2589721679689	-1189.760986328125	-132.1822204589844	406.696014404297	-1075.300415039063	-197.7594757080079	239.9381103515626	-1170.11474609375	-283.9660644531251	251.8627166748047	-1198.938842773438	-250.8577117919922	221.8156738281251	-1188.958984375	-283.3456726074219	148.9662017822266	-1161.581665039063	-387.8268432617189	102.8229217529297	-1166.268432617188	-335.1768188476563	97.88266754150393	-1092.541381835938	-446.988250732422	45.15878295898438	-1114.036010742188	-228.0921936035157	54.41031646728517	-1159.948852539063	-243.9031829833985	54.21410369873048	-1204.838256835938	-303.5108642578126	32.99402618408204	-1238.260986328125	-354.2019958496094	582.3968505859376	-653.4845581054689	-291.2507019042969	576.4326782226564	-631.7073974609376	-268.6011047363282	600.2662353515626	-637.0721435546876	-251.7179412841797	502.4035644531251	-616.3780517578126	-173.1083984375	440.7108764648439	-587.3792114257814	-142.7297668457032	412.8992004394532	-708.7180175781251	-208.0096435546876	263.8375854492188	-594.6211547851564	-316.9983520507813	245.6732940673829	-592.3400878906251	-279.3102416992188	216.5971221923829	-592.8950195312501	-286.1708679199219	164.9436340332032	-619.0982666015626	-394.117645263672	102.1090393066407	-612.2753906250001	-352.0355529785157	95.05263519287111	-691.6658325195314	-454.3428039550782	49.97570800781251	-672.8500366210939	-238.0639953613282	55.36821365356447	-612.2244262695314	-252.6775512695313	59.05737304687501	-575.3744506835939	-308.4118041992188	37.32817459106446	-536.3373413085939	nan	nan	nan	
884	4.415	-117.5055923461914	1405.181518554688	-953.5952148437502	-232.0022277832032	1334.214599609375	-999.382995605469	-282.5859680175782	1287.48681640625	-868.8130493164065	-276.7832641601563	1206.927001953125	-924.364440917969	-429.2017517089845	937.127380371094	-918.4429931640627	-169.0018310546875	1098.030883789063	-909.1687011718752	-166.3558654785157	1144.608764648438	-1085.478515625	-251.0252227783204	1047.646118164063	-1248.065551757813	-261.3338012695313	999.7370605468752	-1240.645751953125	-288.8382568359376	1008.785888671875	-1293.197631835938	-332.4488220214844	977.383483886719	-1336.76708984375	-394.8846130371095	1015.246887207031	-1313.3046875	-487.305145263672	811.7559204101565	-1143.508178710938	-447.1865844726564	758.3298339843751	-1178.283447265625	-438.7122802734376	809.0258789062502	-1092.817749023438	-200.1745605468751	1148.199096679688	-740.7365722656251	-331.7738952636719	1119.578369140625	-592.4648437500001	-335.3242492675782	1070.847778320313	-579.0392456054689	-376.3239440917969	1096.910766601563	-543.1400146484376	-419.2783508300782	1053.64208984375	-500.3857421875001	-486.2534790039064	1068.732666015625	-553.6484985351564	-438.6741333007814	843.006286621094	-694.6436157226564	-425.0409545898439	794.7068481445315	-637.0122680664064	-381.1857604980469	821.333679199219	-737.2039794921876	-362.4721374511719	723.5908813476564	-1007.239868164063	-376.1988525390626	723.2979736328126	-791.299499511719	-519.4235839843751	828.8530273437502	-910.4321289062502	-540.1381225585939	805.7083129882815	-939.8509521484377	-544.2919921875001	805.278503417969	-883.8725585937502	-363.2043151855469	556.6630249023439	-1138.363525390625	-282.3742370605469	550.6115112304689	-1165.999267578125	-257.2820434570313	589.4297485351564	-1163.956787109375	-249.5504150390626	500.3732910156251	-1169.200317382813	-147.2479400634766	446.4804077148439	-1190.040771484375	-134.2158355712891	409.3057861328126	-1075.335327148438	-198.8474121093751	241.4998168945313	-1170.373901367188	-285.0737609863282	252.3608551025391	-1199.051025390625	-251.8378906250001	222.369369506836	-1189.047485351563	-283.5128784179688	149.4078979492188	-1161.6708984375	-388.1965637207032	102.8092422485352	-1166.49560546875	-335.5105285644532	98.065544128418	-1092.8095703125	-447.118377685547	45.05904006958009	-1114.171508789063	-228.163558959961	54.53567123413087	-1159.999877929688	-243.9172668457032	54.3413772583008	-1204.833862304688	-303.5401916503907	33.0113639831543	-1238.260986328125	-354.4510803222657	586.8367309570314	-653.7116699218751	-291.4667053222657	579.8497924804689	-631.8081054687501	-268.5377807617188	603.2428588867189	-637.1668701171876	-252.6030426025391	505.2315368652345	-617.0247192382814	-174.9877166748047	442.3689270019532	-588.0842285156251	-143.9938507080078	414.7651367187501	-709.6392211914064	-209.3188476562501	264.4510192871094	-595.1109008789064	-317.6397399902344	245.914047241211	-592.7794799804689	-280.0526428222657	217.2202758789063	-593.1784667968751	-286.4404296875001	165.4381103515625	-619.1519775390626	-394.2999267578126	102.1117553710938	-612.0137939453126	-352.5042724609376	95.26628875732423	-691.5547485351564	-454.1500549316407	49.64951324462892	-672.7203979492189	-238.2159271240235	55.65613174438478	-612.2553100585939	-252.8789520263672	59.26895141601564	-575.2837524414064	-308.4372863769532	37.29635620117188	-536.3590087890626	nan	nan	nan	
